# xmcd
# 
# Track frame offsets:
#     182
#     22587
#     36835
#     54180
#     70197
#     98047
#     115410
#     131825
#     155012
#     179487
# 
# Disc length: 2652
# 
# Revision: 4
# Processed by: cddbd v1.5.2PL0 Copyright (c) Steve Scherf et al.
# Submitted via: BonkEnc v1.0.8
# 
DISCID=7f0a5a0a
DTITLE=Michel Rivard - Méfiez-vous du grand amour
DYEAR=1977
DGENRE=
TTITLE0=Méfiez-vous du grand amour
TTITLE1=Le plus fou des deux
TTITLE2=Belle promeneuse
TTITLE3=Juste assez d'place
TTITLE4=L'inconnu du terminus
TTITLE5=Je suis un sacripant
TTITLE6=Ce matin-là
TTITLE7=L'enterrement du bonhomme sept heures
TTITLE8=Ramène la bouteille
TTITLE9=Bruxelles (printemps 1977)
EXTD=
EXTT0=
EXTT1=
EXTT2=
EXTT3=
EXTT4=
EXTT5=
EXTT6=
EXTT7=
EXTT8=
EXTT9=
PLAYORDER=
